<?xml version="1.0" standalone="no"?>
<!DOCTYPE svg PUBLIC "-//W3C//DTD SVG 20010904//EN"
 "http://www.w3.org/TR/2001/REC-SVG-20010904/DTD/svg10.dtd">
<svg version="1.0" xmlns="http://www.w3.org/2000/svg"
 width="1280.000000pt" height="902.000000pt" viewBox="0 0 1280.000000 902.000000"
 preserveAspectRatio="xMidYMid meet">
<metadata>
Created by potrace 1.15, written by Peter Selinger 2001-2017
</metadata>
<g transform="translate(0.000000,902.000000) scale(0.100000,-0.100000)"
fill="#000000" stroke="none">
<path d="M2615 8399 c-576 -44 -1041 -192 -1397 -445 -199 -141 -395 -377
-486 -586 -164 -375 -173 -847 -22 -1231 206 -529 747 -900 1481 -1016 198
-32 339 -42 569 -42 231 -1 340 8 519 43 104 20 116 25 147 57 56 59 64 85 54
175 -5 43 -14 84 -19 90 -6 7 -34 25 -62 41 l-52 28 -116 -12 c-701 -73 -1209
51 -1554 378 -235 224 -337 519 -298 860 43 363 246 668 611 912 335 225 713
330 1195 331 232 1 353 -11 525 -49 506 -111 805 -425 895 -941 74 -423 18
-1221 -200 -2832 -174 -1285 -239 -1943 -266 -2698 -12 -347 -7 -437 37 -625
l26 -107 55 -45 c30 -25 65 -45 77 -45 51 0 557 447 817 723 238 251 387 423
581 667 447 564 872 1219 1288 1985 121 224 457 903 556 1127 44 98 81 177 84
178 3 0 2 -64 -2 -142 -32 -667 -52 -1671 -44 -2163 15 -934 107 -1659 283
-2229 26 -82 43 -122 58 -132 11 -7 53 -16 92 -20 l71 -7 67 59 c139 122 502
520 730 799 869 1063 1756 2576 2293 3915 322 804 543 1609 607 2215 20 186
19 460 0 544 -41 171 -146 256 -274 221 -23 -6 -86 -41 -139 -77 -53 -37 -180
-122 -282 -190 -215 -144 -254 -179 -287 -250 -34 -73 -37 -132 -19 -329 18
-196 20 -424 6 -669 -40 -673 -173 -1328 -407 -1995 -367 -1047 -966 -2085
-1754 -3039 -87 -105 -104 -121 -110 -104 -22 59 -69 432 -89 706 -31 419 -31
1384 0 2027 40 825 113 1630 230 2515 73 561 82 669 59 759 -21 85 -87 137
-174 136 -49 -1 -593 -165 -616 -186 -84 -76 -134 -303 -159 -711 -5 -95 -10
-211 -10 -259 0 -86 0 -86 -106 -352 -643 -1612 -1404 -2980 -2240 -4027 -192
-241 -369 -441 -372 -422 -4 22 22 384 54 727 46 508 130 1225 218 1855 141
1011 205 1601 213 1961 7 324 -15 504 -91 738 -241 734 -931 1130 -2101 1206
-184 12 -589 11 -750 -1z"/>
</g>
</svg>
